<svg width="48" height="48" viewBox="0 0 48 48" fill="none" xmlns="http://www.w3.org/2000/svg">
<path d="M35.4447 44.25H8.23631C6.96907 44.25 6 43.275 6 42V6C6 4.725 6.96907 3.75 8.23631 3.75H28.6613C28.8849 3.75 29.034 3.825 29.1831 3.975L37.6065 15.9C37.681 15.975 37.681 16.125 37.681 16.275V42C37.681 43.275 36.712 44.25 35.4447 44.25Z" fill="white"/>
<path d="M37.6811 16.05L29.1085 3.975C28.9595 3.75 28.6613 3.75 28.6613 3.75V4.2V13.8C28.5867 16.125 29.9285 16.5 30.0776 16.5C30.0776 16.5 30.0776 16.5 30.1522 16.5H37.4574C37.6811 16.575 37.8302 16.275 37.6811 16.05Z" fill="#ECEAE6"/>
<path d="M40.6627 35.4002H24.7104C23.5177 35.4002 22.6232 34.4252 22.6232 33.3002V28.0502C22.6232 26.8502 23.5923 25.9502 24.7104 25.9502H40.6627C41.8554 25.9502 42.75 26.9252 42.75 28.0502V33.3002C42.75 34.5002 41.8554 35.4002 40.6627 35.4002Z" fill="#FC1D11"/>
<path d="M26.1267 29.5506C26.3503 29.1756 26.6485 28.8756 27.0212 28.6506C27.3939 28.4256 27.8412 28.3506 28.2884 28.3506C28.8102 28.3506 29.332 28.5006 29.7048 28.8006C30.0775 29.1006 30.3757 29.4756 30.5247 30.0006H29.4066C29.332 29.7756 29.1084 29.6256 28.9593 29.4756C28.7357 29.3256 28.5121 29.3256 28.2884 29.3256C27.9903 29.3256 27.7666 29.4006 27.543 29.5506C27.3194 29.7006 27.1703 29.8506 27.0212 30.1506C26.8721 30.3756 26.8721 30.6756 26.8721 30.9756C26.8721 31.2756 26.9466 31.5756 27.0212 31.8006C27.0957 32.0256 27.3194 32.2506 27.543 32.4006C27.7666 32.5506 27.9903 32.6256 28.2884 32.6256C28.5866 32.6256 28.8102 32.5506 28.9593 32.4756C29.183 32.3256 29.332 32.1756 29.4066 31.9506H30.5247C30.3757 32.4756 30.0775 32.8506 29.7048 33.1506C29.332 33.4506 28.8102 33.6006 28.2884 33.6006C27.8412 33.6006 27.3939 33.5256 27.0212 33.3006C26.6485 33.0756 26.3503 32.7756 26.1267 32.4006C25.903 32.0256 25.8285 31.5756 25.8285 31.1256C25.8285 30.6756 25.903 29.9256 26.1267 29.5506Z" fill="white"/>
<path d="M32.1647 33.2254C31.8665 33.0754 31.6429 32.9254 31.4938 32.7004C31.3447 32.4754 31.2702 32.2504 31.2702 31.9504H32.3138C32.3138 32.1754 32.3883 32.3254 32.5374 32.4004C32.6865 32.5504 32.8356 32.5504 33.0592 32.5504C33.2828 32.5504 33.4319 32.4754 33.581 32.4004C33.7301 32.3254 33.8047 32.1754 33.8047 31.9504C33.8047 31.8004 33.7301 31.6504 33.6556 31.5754C33.581 31.5004 33.4319 31.4254 33.3574 31.3504C33.2083 31.2754 33.0592 31.2004 32.8356 31.2004C32.5374 31.1254 32.2392 31.0504 32.0902 30.9004C31.8665 30.8254 31.7174 30.6754 31.5683 30.4504C31.4193 30.3004 31.3447 30.0004 31.3447 29.7004C31.3447 29.4004 31.4193 29.1754 31.5683 28.9504C31.7174 28.7254 31.9411 28.5754 32.1647 28.4254C32.3883 28.2754 32.6865 28.2754 33.0592 28.2754C33.581 28.2754 33.9537 28.4254 34.2519 28.6504C34.5501 28.8754 34.7737 29.2504 34.7737 29.7004H33.7301C33.7301 29.5504 33.6556 29.4004 33.5065 29.2504C33.3574 29.1004 33.2083 29.1004 32.9847 29.1004C32.761 29.1004 32.612 29.1754 32.5374 29.2504C32.4629 29.3254 32.3883 29.4754 32.3883 29.7004C32.3883 29.8504 32.4629 29.9254 32.5374 30.0004C32.612 30.0754 32.761 30.1504 32.8356 30.2254C32.9847 30.3004 33.1338 30.3754 33.3574 30.3754C33.6556 30.4504 33.9537 30.5254 34.1028 30.6754C34.3265 30.7504 34.4755 30.9004 34.6246 31.1254C34.7737 31.2754 34.8483 31.5754 34.8483 31.8754C34.8483 32.1004 34.7737 32.4004 34.6246 32.6254C34.4755 32.8504 34.3265 33.0004 34.0283 33.1504C33.8047 33.3004 33.4319 33.3754 33.1338 33.3754C32.6865 33.3754 32.3883 33.3004 32.1647 33.2254Z" fill="white"/>
<path d="M39.9918 28.4258L38.2027 33.3008H37.01L35.221 28.4258H36.2646L37.6064 32.3258L38.9482 28.4258H39.9918Z" fill="white"/>
</svg>
